<?xml version="1.0" standalone="no"?><!DOCTYPE svg PUBLIC "-//W3C//DTD SVG 1.1//EN" "http://www.w3.org/Graphics/SVG/1.1/DTD/svg11.dtd"><svg t="1504488640340" class="icon" style="" viewBox="0 0 1024 1024" version="1.1" xmlns="http://www.w3.org/2000/svg" p-id="1698" xmlns:xlink="http://www.w3.org/1999/xlink" width="200" height="200"><defs><style type="text/css"></style></defs><path d="M798.862735 724.932628c18.253176 18.253176 18.253176 47.894815 0 66.147991l0 0c-18.28481 18.28481-47.894815 18.28481-66.179625 0l-159.913005-159.913005c-18.28481-18.28481-18.28481-47.894815 0-66.179625l0 0c18.253176-18.253176 47.894815-18.253176 66.147991 0L798.862735 724.932628z" p-id="1699"></path><path d="M567.39222 330.0693c-65.515298-65.515298-171.775987-65.515298-237.291286 0-65.515298 65.515298-65.546933 171.775987 0 237.291286 65.515298 65.515298 171.775987 65.515298 237.291286 0C632.907518 501.845287 632.907518 395.584598 567.39222 330.0693zM552.112698 552.112698c-57.100489 57.100489-149.663388 57.100489-206.763877 0s-57.100489-149.663388 0-206.763877 149.663388-57.100489 206.763877 0S609.181553 495.012209 552.112698 552.112698z" p-id="1700"></path><path d="M549.170679 460.182492c-10.502694 43.33943-43.244526 77.979339-85.476744 91.170975" p-id="1701"></path><path d="M794.845139 5.846078 229.154861 5.846078C105.811477 5.846078 5.846078 105.811477 5.846078 229.154861l0 565.690277C5.846078 918.188523 105.811477 1018.153922 229.154861 1018.153922l565.690277 0C918.188523 1018.153922 1018.153922 918.188523 1018.153922 794.845139L1018.153922 229.154861C1018.153922 105.811477 918.188523 5.846078 794.845139 5.846078zM1002.336612 786.01908c0 119.48396-96.865207 216.317532-216.317532 216.317532L237.98092 1002.336612c-119.48396 0-216.317532-96.865207-216.317532-216.317532L21.663388 237.98092C21.663388 118.528595 118.528595 21.663388 237.98092 21.663388l548.006525 0c119.48396 0 216.317532 96.865207 216.317532 216.317532L1002.304978 786.01908z" p-id="1702"></path></svg>